<svg width="24" height="24" viewBox="0 0 24 24" fill="none" xmlns="http://www.w3.org/2000/svg">
<path d="M12 0C5.37224 0 0 5.373 0 12C0 18.6271 5.37224 24 12 24C18.6278 24 24 18.627 24 12C24 5.37291 18.6277 0 12 0ZM19.8741 5.80798C21.1641 7.44602 21.9539 9.49195 22.0161 11.7187C19.3237 11.247 17.0017 11.2327 14.9954 11.5507C14.7411 10.9672 14.4794 10.4002 14.2109 9.85122C16.3627 8.96625 18.2925 7.67546 19.8741 5.80798ZM18.4934 4.37401C17.0804 6.08924 15.3066 7.26972 13.2997 8.07305C12.0149 5.69256 10.6935 3.70876 9.63748 2.26053C10.3957 2.07525 11.1855 1.97631 11.9993 1.97631C14.4765 1.97548 16.7429 2.88072 18.4934 4.37401ZM7.69125 2.95124C8.71199 4.31395 10.0702 6.28795 11.3985 8.70823C8.58306 9.48148 5.43378 9.69 2.24627 9.69898C2.94975 6.71701 4.9852 4.245 7.69125 2.95124ZM1.97696 11.9991L1.9852 11.6751H2.03916C5.61066 11.6751 9.15661 11.4411 12.3359 10.5044C12.5729 10.9866 12.8061 11.4816 13.0342 11.9909C8.85146 13.2172 6.24369 15.9696 4.45646 18.5886C2.91449 16.827 1.97696 14.5207 1.97696 11.9991ZM5.91745 19.9582C7.60945 17.4098 9.96743 14.8883 13.8044 13.8292C14.7007 16.1257 15.4319 18.6322 15.819 21.2647C14.6415 21.7537 13.3522 22.0237 12.0007 22.0237C9.71394 22.0237 7.605 21.2535 5.91745 19.9582ZM17.6625 20.2658C17.2522 17.8605 16.5802 15.5663 15.7709 13.4393C17.5245 13.2165 19.5404 13.2706 21.8774 13.7003C21.4102 16.4166 19.8487 18.7635 17.6625 20.2658Z" fill="black"/>
</svg>
