<svg width="24" height="24" viewBox="0 0 24 24" fill="none" xmlns="http://www.w3.org/2000/svg">
<path d="M23.5055 6.50362C23.229 5.52463 22.4183 4.7529 21.3903 4.48929C19.5122 4 11.9997 4 11.9997 4C11.9997 4 4.48756 4 2.60948 4.47074C1.60122 4.73407 0.770802 5.52477 0.494239 6.50362C0 8.29172 0 12 0 12C0 12 0 15.727 0.494239 17.4964C0.771095 18.4752 1.58145 19.247 2.60962 19.5106C4.50733 20 12 20 12 20C12 20 19.5122 20 21.3903 19.5293C22.4185 19.2658 23.229 18.4941 23.5058 17.5152C23.9999 15.727 23.9999 12.0188 23.9999 12.0188C23.9999 12.0188 24.0197 8.29172 23.5055 6.50362ZM9.60793 15.4258V8.57416L15.8549 12L9.60793 15.4258Z" fill="black"/>
</svg>
